<?xml version="1.0" encoding="utf-8"?>
<!-- Generator: Adobe Illustrator 26.0.2, SVG Export Plug-In . SVG Version: 6.00 Build 0)  -->
<svg version="1.1" id="Layer_1" xmlns="http://www.w3.org/2000/svg" xmlns:xlink="http://www.w3.org/1999/xlink" x="0px" y="0px"
	 viewBox="0 0 100 100" style="enable-background:new 0 0 100 100;" xml:space="preserve">
<style type="text/css">
	.st0{fill:#DD2775;}
</style>
<g>
	<path class="st0" d="M72.17,51.02c-1.12,0.13-1.99,0.24-2.88,0.36c-2.18,0.26-4.32,0.74-6.43,1.32c-0.42,0.12-0.55,0.46-0.69,0.82
		c-2.02,5.26-4.16,10.46-6.32,15.67c-0.46,1.12-0.79,2.27-0.98,3.47c-0.21,1.51,0.4,2.3,1.93,2.42c0.58,0.04,1.18,0,1.77,0.03
		c0.53,0.04,1.12,0.09,1.08,0.83c-0.03,0.7-0.57,0.73-1.08,0.73c-0.52,0-1.06,0.03-1.57-0.01c-4.74-0.37-9.49-0.01-14.22,0
		c-0.61,0-1.51,0.21-1.53-0.74c-0.01-0.95,0.89-0.82,1.49-0.79c3.01,0.13,5.05-1.29,6.22-3.96c1.9-4.27,3.73-8.57,5.59-12.87
		c0.36-0.85,0.73-1.69,1.08-2.54c-0.29-0.25-0.49-0.03-0.69,0.07c-3.62,1.77-7.13,3.75-10.81,5.4c-0.36,0.16-0.52,0.38-0.52,0.77
		c-0.12,7.42-6.82,13.78-14.37,14.44c-4.58,0.4-9.16,0.41-13.67-0.73c-0.83-0.21-1.64-0.52-2.44-0.86
		c-0.82-0.34-1.18-0.96-1.19-1.81c-0.05-3.32,0.22-6.63,0.41-9.94c0.01-0.18,0.08-0.37,0.13-0.54c0.12-0.49,0.37-0.91,0.94-0.82
		c0.52,0.09,0.65,0.53,0.65,1c0,1.03,0.21,2.02,0.46,3.01c0.79,3.17,2.81,5.27,5.84,6.34c3.83,1.35,7.66,1.6,11.3-0.57
		c2.48-1.47,3.66-3.78,3.9-6.62c0.07-0.7-0.13-0.89-0.87-0.79c-3.07,0.42-6.12,0.41-9.17-0.12c-0.21-0.04-0.42-0.07-0.63-0.12
		c-0.15-0.04-0.29-0.09-0.44-0.13c3.16-0.21,6.25-0.52,9.31-1.24c4.4-1.04,8.46-2.96,12.46-5.03c4-2.07,7.98-4.21,12.33-5.54
		c4.29-1.31,8.65-1.73,13.11-1.16C71.75,50.78,71.83,50.85,72.17,51.02z"/>
	<path class="st0" d="M99.43,75.21c-0.46-0.07-0.92-0.09-1.39-0.11c-2.09-0.01-3.67-0.9-4.88-2.59c-1.06-1.51-1.92-3.12-2.64-4.8
		c-2.42-5.6-4.82-11.22-7.2-16.83c-0.42-1-0.95-1.98-1.26-3.18c4.64,0.78,8.9,2.34,13.16,3.98c-0.17-0.22-0.36-0.37-0.55-0.5
		c-4.03-2.56-8.3-4.57-12.92-5.8c-0.63-0.17-0.99-0.46-1.24-1.07c-2.54-6-5.09-11.97-7.65-17.94c-0.3-0.69-0.61-1.37-1-1.99
		c-0.73-1.11-1.81-1.11-2.55-0.01c-0.32,0.49-0.58,1.02-0.82,1.56c-2.7,6.26-5.38,12.52-8.06,18.79c-0.33,0.79-0.82,1.32-1.69,1.56
		c-1.89,0.52-3.7,1.23-5.51,1.94c-3.69,1.47-7.28,3.12-10.9,4.73c-0.36,0.16-0.67,0.36-1.02-0.15c-2.35-3.4-5.59-5.76-9.12-7.77
		c-2.63-1.52-5.38-2.83-7.78-4.73c-2.44-1.94-3.77-4.37-3.09-7.54c0.65-3.03,2.88-4.51,5.63-5.35c2.25-0.7,4.53-0.71,6.8-0.21
		c2.62,0.59,4.61,2.05,5.84,4.49c0.5,1.02,0.74,2.1,0.82,3.22c0.03,0.4,0.18,0.73,0.63,0.79c0.48,0.05,0.67-0.29,0.81-0.65
		c0.21-0.59,0.18-1.22,0.2-1.84c0.08-2.33,0.03-4.65,0.22-6.98c0.12-1.32-0.09-1.61-1.41-1.92c-2.06-0.46-4.15-0.74-6.25-0.89
		c-4.57-0.3-9.06-0.01-13.25,2.06c-3.54,1.74-6.33,4.24-7.36,8.16c-1.52,5.81,0.29,10.67,4.68,14.65c2.76,2.52,6.04,4.29,9.22,6.2
		c1.23,0.74,2.54,1.37,3.65,2.46C20.49,60.42,10.13,58.24,0,53.7c0.11,0.09,0.21,0.21,0.33,0.29c6.72,4.61,14.06,7.41,22.29,7.5
		c6.04,0.08,11.78-1.41,17.36-3.57c4.58-1.77,9.02-3.87,13.53-5.8c2.72-1.18,5.51-2.19,8.35-3.08c3.16-0.99,6.35-1.59,9.62-1.97
		c0.69-0.08,1,0.18,1.23,0.81c0.54,1.51,1.12,3.01,1.7,4.51l8.24,20.81c0.52,1.27,0.45,1.41-0.81,2.02
		c-0.28,0.13-0.48,0.3-0.48,0.62c0.01,0.4,0.32,0.5,0.63,0.57c0.21,0.04,0.44,0.04,0.65,0.05c5.27,0.29,10.54,0.16,15.8,0.16
		c0.34,0,0.69-0.07,1.02-0.13c0.33-0.07,0.55-0.26,0.53-0.65C99.98,75.47,99.76,75.26,99.43,75.21z M70.68,44.08
		c-1.51,0.15-3.01,0.18-4.52,0.44c-0.41,0.07-0.33-0.25-0.22-0.49c0.83-2.13,1.66-4.24,2.5-6.35c0.09-0.01,0.17-0.01,0.26-0.01
		c0.77,1.97,1.52,3.95,2.3,5.92C71.13,43.91,70.97,44.04,70.68,44.08z"/>
</g>
</svg>
