<?xml version="1.0" encoding="utf-8"?>
<!-- Generator: Adobe Illustrator 26.0.2, SVG Export Plug-In . SVG Version: 6.00 Build 0)  -->
<svg version="1.1" id="Layer_1" xmlns="http://www.w3.org/2000/svg" xmlns:xlink="http://www.w3.org/1999/xlink" x="0px" y="0px"
	 viewBox="0 0 100 100" style="enable-background:new 0 0 100 100;" xml:space="preserve">
<style type="text/css">
	.st0{fill:url(#SVGID_1_);}
	.st1{fill:url(#SVGID_00000090256508125229810520000003653244762913271714_);}
</style>
<g>
	<linearGradient id="SVGID_1_" gradientUnits="userSpaceOnUse" x1="40.7545" y1="68.7639" x2="95.5272" y2="68.7639">
		<stop  offset="0" style="stop-color:#C1912E"/>
		<stop  offset="0.5112" style="stop-color:#F2D799"/>
	</linearGradient>
	<path class="st0" d="M68.1,41.4c-5.3,0-10.2,1.5-14.4,4.1c1.4,1.3,2.7,2.8,3.9,4.4c3.1-1.7,6.7-2.7,10.5-2.7
		c11.9,0,21.7,9.7,21.7,21.7c0,11.9-9.7,21.7-21.7,21.7c-3.8,0-7.4-1-10.5-2.7c-0.7-0.4-1.3-0.8-2-1.2c-3-2.1-5.4-4.9-7-8.2
		c-0.5-0.9-0.8-1.9-1.2-2.9c-0.7-2.1-1.1-4.4-1.1-6.7c0-2.3,0.4-4.6,1.1-6.7c0.3-1,0.7-1.9,1.2-2.9c-1-1.8-2.3-3.4-3.9-4.8
		c-0.4,0.7-0.8,1.4-1.2,2.1c-1.9,3.7-2.9,7.9-2.9,12.3c0,4.4,1.1,8.6,2.9,12.3c0.4,0.7,0.8,1.4,1.2,2.1c1.8,3,4.2,5.5,7,7.6
		c0.6,0.5,1.3,0.9,2,1.3c4.2,2.6,9.1,4.1,14.4,4.1c15.1,0,27.4-12.3,27.4-27.4C95.5,53.7,83.2,41.4,68.1,41.4z"/>
	
		<linearGradient id="SVGID_00000095336114403312263820000004508650352049851063_" gradientUnits="userSpaceOnUse" x1="4.4728" y1="62.0391" x2="59.2446" y2="62.0391">
		<stop  offset="0" style="stop-color:#C1912E"/>
		<stop  offset="0.5112" style="stop-color:#F2D799"/>
	</linearGradient>
	<path style="fill:url(#SVGID_00000095336114403312263820000004508650352049851063_);" d="M59.2,68.8c0,4.4-1,8.6-2.9,12.3
		c-0.3,0.7-0.7,1.4-1.2,2.1c-1.5-1.4-2.8-3-3.9-4.8c0.4-0.9,0.8-1.9,1.2-2.9c0.7-2.1,1.1-4.4,1.1-6.7c0-2.3-0.4-4.6-1.1-6.7
		c-0.3-1-0.7-1.9-1.2-2.9c-0.1-0.2-0.2-0.5-0.4-0.7l-0.2-0.4c0,0,0,0,0,0c-0.1-0.2-0.2-0.4-0.4-0.6c-0.5-0.8-1-1.5-1.5-2.2
		c-0.2-0.2-0.4-0.4-0.5-0.7c-0.2-0.2-0.3-0.4-0.5-0.6c0,0-0.1-0.1-0.2-0.2c-0.2-0.2-0.3-0.3-0.5-0.5c-0.3-0.3-0.6-0.6-0.9-0.8
		c-0.6-0.5-1.2-1-1.9-1.5c-0.6-0.4-1.3-0.8-2-1.2c-3.1-1.7-6.6-2.7-10.4-2.7c-11.9,0-21.7,9.7-21.7,21.7c0,11.9,9.7,21.7,21.7,21.7
		c3.8,0,7.4-1,10.5-2.7c1.1,1.6,2.4,3,3.9,4.4c-4.2,2.6-9.1,4.1-14.4,4.1c-15.1,0-27.4-12.3-27.4-27.4c0-14.3,10.9-26,24.9-27.2
		v-4.4c-1.6-0.8-2.9-2.1-3.7-3.7l-1.3-2.4c-0.6-1.1,0.1-2.5,1.3-2.6l2.7-0.2c2.4-0.2,4.8-0.2,7.2,0l2.7,0.2c1.2,0.1,1.9,1.5,1.3,2.6
		l-1.3,2.4c-0.9,1.6-2.2,2.9-3.7,3.7v4.4c6.1,0.5,11.6,3.1,15.9,7l0.3,0.3c0,0,0.1,0.1,0.1,0.1c0.2,0.2,0.5,0.5,0.7,0.7
		c0.3,0.3,0.6,0.6,0.9,0.9c0.6,0.6,1.1,1.3,1.6,2h0l0.2,0.3l0.1,0.1C57.4,57.4,59.2,62.9,59.2,68.8z"/>
</g>
</svg>
