<?xml version="1.0" encoding="utf-8"?>
<!-- Generator: Adobe Illustrator 26.0.2, SVG Export Plug-In . SVG Version: 6.00 Build 0)  -->
<svg version="1.1" id="Layer_1" xmlns="http://www.w3.org/2000/svg" xmlns:xlink="http://www.w3.org/1999/xlink" x="0px" y="0px"
	 viewBox="0 0 100 100" style="enable-background:new 0 0 100 100;" xml:space="preserve">
<style type="text/css">
	.st0{fill:url(#SVGID_1_);}
	.st1{fill:url(#SVGID_00000158005180456490760890000013658335481479959999_);}
</style>
<g>
	<linearGradient id="SVGID_1_" gradientUnits="userSpaceOnUse" x1="40.8" y1="87.135" x2="95.47" y2="87.135">
		<stop  offset="0" style="stop-color:#C2922E"/>
		<stop  offset="0.5112" style="stop-color:#F2D89A"/>
	</linearGradient>
	<path class="st0" d="M68.14,74.27c-5.27,0-10.18,1.5-14.36,4.08c1.41,1.33,2.7,2.79,3.86,4.36c3.11-1.74,6.69-2.73,10.5-2.73
		c11.39,0,20.77,8.84,21.61,20.02h5.72C94.62,85.67,82.68,74.27,68.14,74.27z M44.83,87.3c-0.41,0.68-0.81,1.37-1.17,2.08
		c-1.63,3.23-2.63,6.82-2.86,10.62h5.73c0.13-1.75,0.47-3.44,0.99-5.05c0.32-0.99,0.71-1.94,1.17-2.85
		C47.66,90.29,46.36,88.68,44.83,87.3z"/>
	
		<linearGradient id="SVGID_00000048469717292291699600000008924869097733267121_" gradientUnits="userSpaceOnUse" x1="4.53" y1="80.4137" x2="59.18" y2="80.4137">
		<stop  offset="0" style="stop-color:#C2922E"/>
		<stop  offset="0.5112" style="stop-color:#F2D89A"/>
	</linearGradient>
	<path style="fill:url(#SVGID_00000048469717292291699600000008924869097733267121_);" d="M59.18,100h-5.71
		c-0.13-1.75-0.48-3.46-1.01-5.07c-0.33-0.98-0.71-1.94-1.17-2.87c-0.12-0.23-0.25-0.48-0.37-0.71l-0.23-0.4
		c0-0.01-0.02-0.03-0.02-0.05c-0.13-0.21-0.24-0.43-0.39-0.64c-0.47-0.76-0.96-1.48-1.53-2.16c-0.18-0.23-0.36-0.44-0.54-0.66
		c-0.17-0.2-0.35-0.4-0.53-0.58c-0.05-0.05-0.12-0.12-0.17-0.18c-0.17-0.17-0.32-0.33-0.5-0.5c-0.28-0.28-0.58-0.56-0.88-0.83
		c-0.61-0.53-1.24-1.02-1.9-1.49c-0.63-0.43-1.29-0.84-1.97-1.21c-3.09-1.71-6.63-2.67-10.41-2.67c-11.39,0-20.75,8.84-21.59,20.02
		H4.53c0.8-13.49,11.42-24.38,24.8-25.59v-4.4c-1.56-0.82-2.87-2.11-3.75-3.75l-1.3-2.43c-0.6-1.12,0.08-2.52,1.27-2.61l2.7-0.25
		c2.41-0.19,4.81-0.19,7.21,0l2.7,0.25c1.2,0.09,1.88,1.49,1.28,2.61l-1.31,2.43c-0.88,1.64-2.19,2.93-3.75,3.75v4.39
		c6.09,0.55,11.6,3.1,15.88,7.01l0.35,0.31c0.05,0.04,0.1,0.09,0.13,0.14c0.25,0.23,0.48,0.46,0.73,0.71
		c0.3,0.3,0.58,0.61,0.86,0.93c0.57,0.63,1.08,1.27,1.58,1.95h0.01l0.2,0.28l0.07,0.09C57.07,89.87,58.87,94.73,59.18,100z"/>
</g>
</svg>
